<?xml version="1.0" standalone="no"?><!DOCTYPE svg PUBLIC "-//W3C//DTD SVG 1.1//EN" "http://www.w3.org/Graphics/SVG/1.1/DTD/svg11.dtd"><svg t="1750436355904" class="icon" viewBox="0 0 1024 1024" version="1.1" xmlns="http://www.w3.org/2000/svg" p-id="8963" width="24" height="24" xmlns:xlink="http://www.w3.org/1999/xlink"><path d="M368.332 512.332m-48 0a48 48 0 1 0 96 0 48 48 0 1 0-96 0Z" p-id="8964" fill="#d7dae0"></path><path d="M512.332 512.332m-48 0a48 48 0 1 0 96 0 48 48 0 1 0-96 0Z" p-id="8965" fill="#d7dae0"></path><path d="M656.332 512.332m-48 0a48 48 0 1 0 96 0 48 48 0 1 0-96 0Z" p-id="8966" fill="#d7dae0"></path><path d="M336 784a47.858 47.858 0 0 1-33.942-14.058l-224-224c-18.746-18.746-18.746-49.138 0-67.882l224-224c18.746-18.744 49.136-18.744 67.882 0 18.742 18.744 18.742 49.136 0 67.882L179.882 512l190.058 190.058c18.742 18.744 18.742 49.136 0 67.882A47.85 47.85 0 0 1 336 784zM688 784a47.858 47.858 0 0 0 33.942-14.058l224-224c18.746-18.746 18.746-49.138 0-67.882l-224-224c-18.746-18.744-49.136-18.744-67.882 0-18.742 18.744-18.742 49.136 0 67.882L844.118 512l-190.058 190.058c-18.742 18.744-18.742 49.136 0 67.882A47.85 47.85 0 0 0 688 784z" p-id="8967" fill="#d7dae0"></path></svg>